<?xml version="1.0" encoding="utf-8"?>
<!-- Generator: Adobe Adobe Illustrator 24.2.0, SVG Export Plug-In . SVG Version: 6.00 Build 0)  -->
<svg version="1.1" id="Calque_1" xmlns="http://www.w3.org/2000/svg" xmlns:xlink="http://www.w3.org/1999/xlink" x="0px" y="0px"
	 width="595.28px" height="841.89px" viewBox="0 0 595.28 841.89" style="enable-background:new 0 0 595.28 841.89; fill: white"
	 xml:space="preserve">
<g>
	<path d="M256.68,80.9c3.62,0.52,6.91,0.51,10.48,0.43c3.85-4.96,5.09-11.5,9.33-16.35c2.58-0.9,5.45-1.26,7.25-3.3
		c6.29,0.15,12.03-1.53,17.9-2.2c0.88-0.1,1.44-0.76,2.15-1.12c2.05-1.04,4.15-2,6.56-1.64c2.2,0.33,4.25-0.29,6.09-1.06
		c2.55,0.22,4.66,1.17,7.12,2.16c0.54,2.23,2.67,3.67,4,5.76c3.72,5.85,4.4,11.51,0.51,17.08c0,1.26,0.32,1.97,1.34,2.48
		c0.29-0.01,0.85,0.12,1.22-0.08c2.24-1.24,4.58-1.63,7.15-1.53c4.46,0.17,8.94,0.04,13.41,0.04c0.83,0,1.71-0.14,2.47,0.09
		c3.65,1.11,7.36,1.74,11.18,1.91c1.76,0.08,3.29,0.76,2.8,3.63c-9.38,3-19.24,4.09-29.63,4.2c-2.08,2.07-5.01,2.23-8.03,2.15
		c-5.13-0.15-10.27,0.45-15.38-0.19c-6.03-0.76-12.11-1.1-18.15-1.82c-6.19-0.74-12.55-0.81-18.67,1.2
		c-3.3,1.08-6.58,2.03-10.12,0.9c-0.87-0.28-1.97,0.02-2.94,0.19c-3.27,0.56-6.52,0.87-9.81-0.04c-1.08-0.3-2.32-0.26-3.44-0.1
		c-5.58,0.79-11.09,0.8-16.72-0.07c-4.18-0.64-8.54-0.13-12.82-0.13c-1.99,3.49-2.91,7.41-6.57,8.67c-1.37,2.67-1.49,4.95-0.95,7.53
		c0.66,3.2,0.68,6.53,1.18,9.79c0.25,1.64,0.35,3.25,1.13,4.75c1.66,3.2,0.89,6.81,1.64,10.19c0.74,3.36,1.65,6.67,2.38,10.08
		c1.96,1.14,3.93,1.21,6.15,0.81c2.09-0.38,4.3-0.05,6.44-0.21c3.59-0.27,7.13-0.22,10.68-1.61c2.98-1.17,6.45-1.19,9.72-1.48
		c4.28-0.38,8.5-0.89,12.59-2.36c1.99-0.71,4.22-0.72,6.26-1.31c8.75-2.56,17.67-3.68,26.78-3.44c1.29,0.03,2.59-0.44,3.89-0.62
		c0.81-0.11,1.65-0.17,2.46-0.11c0.42,0.03,0.82,0.37,1.6,0.75c-1.57,1.73-3.56,1.87-5.35,2.21c-3.39,0.65-6.83,1-10.22,1.64
		c-7.58,1.43-15.14,2.98-22.72,4.44c-1.38,0.26-2.5,0.77-3.51,2.56c5.83-0.19,10.93,2.47,16.82,1.45c3.89-0.68,8.13-0.86,12.22-0.17
		c1.8,0.3,3.62-0.04,5.41-0.44c3.09-0.7,6.16-0.65,9.32-0.04c4.9,0.94,9.89,0.11,14.96,0.54c2.25-3.14,4.46-6.24,8.94-7.89
		c1-0.15,2.79-0.4,4.82,0.02c0.83,0.77,1.78,1.66,2.64,2.45c0.66,1.49-0.17,3.13,0.8,4.31c0.86,0.94,1.83,0.92,2.84,0.73
		c3.74-0.71,7.48-1.23,11.23,0.03c1.69,0.57,3.22-0.44,5.09-0.67c2.4,1.12,5.42,1.27,8.68,3.43c-6.04,0.84-11.24,0.05-16.36,1.97
		c1.43,0.49,2.65,0.9,4.07,1.39c6.3-2.01,13.37,0.66,19.23-2.15c2.39-2.4,2.52-4.85,2.49-7.37c-0.07-7.4,0.84-14.74,1.71-22.07
		c0.13-1.1-0.05-1.95-1.04-2.54c-3.33,0.5-3.33,0.5-5.46,3.24c-1.27,0.46-2.56,0.49-4.14-0.08c-2.66-3.96-6.58-7.25-8.88-11.51
		c-0.05-2.1,1.1-3.34,2.08-4.87c2.17-0.42,4.46-0.85,5.51-3.21c1.3,0.85,0.01,1.63,0.72,2.74c2.12,1.34,3,4.46,5.24,6.12
		c1.83,0.29,2.69-0.74,3.77-1.94c-1.6-6.35-3.92-12.82-1.42-19.22c-2.12-4.6-2.12-4.6-2-7.88c0.99-1.77,2.73-2.2,4.48-2.53
		c1.93,0.34,3.46,1.3,4.96,2.24c2.45,3.61,3.57,7.42,2.68,11.77c1.21,2.24,2.4,4.4,2.25,7.28c-0.1,1.96,0.67,4.23,2.22,5.17
		c0.66,7.03,2.16,13.45,1.07,19.83c-1.21,7.07-0.57,14.15-1.23,21.59c-1.9,1.97-1.8,4.83-1.57,7.62c0.26,3.2-0.13,6.25-1.35,9.2
		c-1.23,1.2-2.79,1.68-4.51,1.82c-1.39,2.38-2.94,4.49-5.13,6.08c-5.48,1.91-11.11,2.69-16.95,2.65
		c-12.41-0.08-24.83,0.09-37.25,0.17c-2.13,0.01-4.32-0.27-6.2,1.1c-1.61,6.3-1.69,18.72-0.16,22.86c1.64,1.13,3.18-0.29,5.03-0.24
		c0.99,0.49,2.16,1.07,3.1,1.54c1.63,1.75,1.31,3.93,2.21,5.89c5.18,0.91,10.47,0.33,15.7,0.23c8.07-0.16,16.12-0.03,24.18,0.27
		c3.29,0.12,6.54,1.02,9.86,0.66c7.04-0.75,14.11-0.81,21.01-0.86c2.23-3.4,0.49-6.87,1.42-10.26c0.63-0.66,1.42-1.49,2.08-2.19
		c4.19-1.4,8.33-1.37,12.45-1.36c6.4,0,12.89-0.47,19.19,0.35c6.29,0.82,12.56-0.32,18.92,0.77c2.42,1.92,1.42,5.61,3.76,7.49
		c-1.76,3.34-1.76,3.34-1.13,6.76c3.26,1.51,6.62,0.44,10,0.12c4.66-0.43,9.42-1.46,14.17,1.36c2.16,0,4.64,0,7.25,0
		c1.24,1.58,2.43,3.11,3.79,4.86c-3.63,4.2-4.36,9.5-6.01,14.44c-0.88,2.65-1.66,5.33-4.2,7.59c-8.38,0.27-17.14-0.69-25.98,0.05
		c-1.59,1.88-2.86,4.83-6.32,2.42c-0.37-1.43-1.54-2.8-0.93-4.56c0.32-0.91-0.12-1.79-0.59-2.3c-4.27-4.62-3.04-10.13-2.7-15.52
		c0.25-4.05,0.44-8.1,0.62-12.15c0.01-0.26-0.33-0.54-0.63-1.02c-10.97-0.27-22.06-0.55-33.38-0.84c-0.63,2.88-1.61,5.46-0.63,8.27
		c0.11,0.3,0.11,0.66,0.1,0.98c-0.34,7.71-1.04,15.38-3.56,22.75c-0.16,0.46-0.5,0.85-1.03,1.73c-5.02,0.47-9.79,3.13-15.37,3.46
		c-3.31,0.19-6.88,0.1-10.2,1.36c-1.32,0.5-3.03,0.49-4.42,0.15c-3.79-0.93-7.51,0.01-11.26,0.04c-3.8,0.04-7.61,0.01-11.44,0.01
		c-2.45,1.67-4.83,2.04-7.9,1.55c-4.57-0.72-9.35-0.12-14.05-0.04c-0.47,0.01-0.93,0.3-1.33,0.43c-4.22-1.19-9.28-0.38-11.89-6.15
		c0.22-3.86-0.32-8.43-0.9-13c-0.55-4.32,0.69-8.73,0.01-12.86c-3.85-1.7-7.47-1.83-11.1-1.62c-1.68,0.1-3.32,0.11-4.88-0.52
		c-2.2-0.9-4.21-0.48-6.03,0.53c-1.15,0.66-0.63,1.98-1.75,2.92c-1.61,0.09-3.56,0.19-5.22,0.28c-1.39,0.35-1.74,1.31-2.23,2.24
		c-1.62,0.66-3.27,1.34-5.38,2.21c0.12,5.62-1.14,11.23-0.2,17.12c-0.43,1.41-0.9,2.99-1.33,4.42c-3.33,4.44-8.11,3.89-12.63,3.94
		c-0.93,0.01-1.98-0.65-2.89-0.27c-3.11,1.29-6.16,0.64-9.34-0.19c-2.97,1.21-5.95,1.49-8.9-0.46c-0.73-0.49-1.92-0.35-2.9-0.39
		c-5.11-0.23-10.25,0.22-15.32-0.86c-1.99-0.42-3.79,0.98-5.85,0.73c-3.92-0.48-7.91-0.5-11.78-1.19c-1.79-0.32-3.56-0.58-5.36-0.68
		c-1.15-0.07-2.3-0.01-3.38-0.61c-1.75-0.97-3.6-1.48-5.64-1.67c-2.27-0.21-3-0.95-5.08-3.61c-0.42-2.77,0.19-5.91-2-7.92
		c-0.33-3.87-0.04-7.36-0.98-10.76c-0.3-1.07-0.33-2.43,0.08-3.43c1.15-2.85,0.46-5.5-0.54-8.74c-11.19-0.2-22.51,0.78-34.18,0.56
		c0.39,5.19,0.36,9.64,1.13,13.96c1.03,5.83,0.23,11.06-3.4,16.03c-0.11,1.9,0.21,4.13-1.39,5.89c-3.04,1.93-4.49-0.16-5.66-2.51
		c-9.08-1-17.95,0.15-26.33,0c-3.56-3.04-4.47-6.95-5.01-10.5c-0.65-4.23-2.74-7.6-4.49-11.15c0.05-2.08,1.29-3.42,2.4-4.93
		c4.03-1.39,8.73,0.7,12.11-2.22c6.84-0.16,13.29,1.35,19.75,0.74c1.37-2.39,0.44-4.39-0.25-6.52c1.13-2.58,0.76-5.84,3.4-8.22
		c0.59-0.06,1.4-0.21,2.21-0.23c11.69-0.3,23.37-0.61,35.06-0.85c4.13-0.08,8.26,0.06,12.47,1.16c1.72,0.91,2.72,2.57,3.34,4.86
		c-0.31,2.25-1.53,4.87,0.63,7.54c0.35,0.07,0.97,0.3,1.6,0.33c5.77,0.24,11.54-0.11,17.3,0.76c5.09,0.77,10.19-0.54,15.31-0.73
		c9.6-0.35,19.18,0.05,28.77-0.05c2.46-0.03,4.93,0.18,7.47-0.49c0.65-1.6,1.26-3.11,1.97-4.87c0.86-0.63,1.92-1.4,2.65-1.94
		c1.94-1.08,4.05,0.98,5.67-1.62c0-6.87,0-14.26,0-21.51c-1.15-1.3-2.54-1.08-3.83-1.09c-13.24-0.1-26.49-0.2-39.73-0.25
		c-3.64-0.01-7.29,0.19-10.69-1.46c-0.3-0.14-0.62-0.32-0.94-0.31c-5.26,0.05-9.86-2.13-15.28-4.72c-0.62-0.42-1.01-2.27-2.47-3
		c-1.57-3.49-0.04-6.92-0.29-10.09c3.12-5.33,2.15-10.76,1.03-16.04c-0.58-2.76-1.03-5.45-1.15-8.27c-0.2-4.75-1.42-9.42-1.11-14.25
		c0.26-4.12,0.07-8.26,0.12-12.39c0.01-0.81,0.19-1.62,0.34-2.43c0.46-2.52,3.31-3.9,3.47-6.3c0.17-2.6,1.13-4.76,2.15-7
		c0.57-1.24,1.47-2.15,2.6-2.91c3.39-2.3,6.74-4.65,10.24-7.06c1.35,0,2.83,0,4.24,0c0.85,0.68,1.62,1.3,2.27,1.82
		c0.49,0.09,0.81,0.21,1.13,0.2c5.3-0.32,10.54,0.52,15.81,0.86C250.06,81.6,253.2,81.65,256.68,80.9z M257.33,215.73
		c-4.58-0.11-9.19,0.18-13.72-0.77c-0.84-0.18-1.59-0.18-2.4,0.09c-3.06,0.99-6.12-0.05-9.12-0.36c-2.99-0.3-6.04-0.54-8.82,0.14
		c-5.34,1.31-10.72,1.66-16.15,1.8c-2.64,0.07-5.28-0.14-7.92-0.15c-0.43,0-0.86,0.37-1.24,0.55c-0.3,1.44-0.35,2.73,1.29,4.13
		c7.36,0.78,15.19,0.31,23.01-0.36c7.84-0.67,15.73,0.17,23.58-0.95c7.71-1.1,15.61-0.32,23.03-1.55c0.56-1.11,0.6-1.71-0.31-2.64
		C265.36,215.67,261.75,215.67,257.33,215.73z M345.34,219.38c8.36,1.1,16.78,0.91,25.17,1.33c2.88,0.14,5.8-0.01,8.71,0.25
		c6.35,0.57,12.79,0.18,19.12,0.18c1.09-2.27,1.09-2.27,0.5-4.65c-0.77,0-1.59-0.08-2.39,0.01c-6.57,0.73-13.11,0.27-19.5-1.2
		c-2.79-0.64-5.55-0.48-8.31-0.85c-2.03-0.27-3.77,0.94-5.81,0.92c-5.94-0.07-11.88,0.19-17.82,0.24c-5.6,0.05-11.2,0.01-16.47,0.01
		c-1.28,0.84-1.64,1.64-0.66,3.48C333.05,219.59,338.76,218.42,345.34,219.38z M266.83,157.75c4.6,0.5,9.27,0.37,13.76-0.3
		c5.07-0.75,10.21-1.3,15.22-1.34c9.75-0.09,19.45-0.77,29.16-1.34c0.77-0.05,1.72,0.12,1.78-1.49c-4.02,0.27-8.05,1.27-12.01-0.01
		c-6.55,1.24-13.19,0.26-19.79,0.77c-3.44,0.27-6.96,0.19-10.38-0.24c-7.4-0.94-14.76-1.11-22.17-0.1c-3.09,0.42-6.08,1.53-9.28,1.3
		c-0.8-0.06-1.66,0.26-1.41,1.7C256.38,156.98,261.05,157.98,266.83,157.75z M320.01,80.94c-1.16-3.84-2.41-7.64-4.18-11.4
		c-2.91,1.55-3.06,5.3-6.16,5.91c-3.53-0.33-1.81-4.35-4.26-5.74c-1.97-0.18-3.87,0.91-6.07,1.17c-0.65,2.68-1.26,5.18-1.82,7.51
		c1.01,1.33,2.12,2.04,3.51,2.1c5.76,0.28,11.45,1.1,17.14,1.95C318.87,82.55,319.46,82.36,320.01,80.94z M239.02,164.99
		c4.42-0.31,8.82-0.49,13.24-1.05c7.27-0.93,14.66-0.88,22.01-1.15c4.12-0.15,8.26-0.06,12.39-0.15c0.87-0.02,1.96-0.04,1.98-1.54
		c-14.74-0.9-29.47,0.04-44.22-1.2c-2.74,2.55-7.17,1.23-9.7,4.38C235.78,165.3,236.98,164.85,239.02,164.99z M462.81,223.58
		c4.87-0.29,9.79,0.48,14.61-0.39c0.53-1.64,1-3.01,0.08-4.47c-3.47-0.7-6.83,0.23-10.03,0.62c-4.25-1.9-8.43-2.53-12.96-1.85
		c-0.07,1.25-0.15,2.05-0.16,2.86c-0.02,0.96-0.34,1.97,0.68,3.06C457.18,223.34,459.48,224.89,462.81,223.58z M120.96,218.52
		c-0.65,0.12-1.3,0.24-1.52,1.24c0.01,1.32,0.47,2.64,1.88,3.85c7.07-0.19,14.33,0.43,21.68-0.25c0.15-2.21,0.19-3.96-0.47-5.82
		c-3.36-0.28-6.71-0.59-9.69,0.85c-1.96,0.95-3.7,1.19-5.63,0.54C125.44,218.33,123.63,218.56,120.96,218.52z M287.4,76.28
		c0.61-2.25,2.14-4.62-0.75-6.54c-2.32,0.56-4.28,1.69-6.22,2.91c-1.21,1.76-2.11,3.7-3.7,5.17c-0.63,0.58-0.61,1.46,0.3,2.57
		c2.89-0.04,6.09,0.45,8.88-0.4C287.18,79.07,287.24,78.09,287.4,76.28z M343.03,160.16c-1.82-0.19-3.78,0.79-5.31,0.43
		c-5.8-1.36-11.43-0.11-17.11,0.42c-0.92,0.09-1.92,0.21-2.03,1.62c0.67,0.05,1.32,0.1,1.97,0.15c7.43,0.63,14.73-1.79,22.18-0.9
		C343.45,161.97,343.85,161.38,343.03,160.16z M356.17,230.47c0.05-0.15,0.15-0.31,0.15-0.46c0-0.1-0.14-0.27-0.22-0.28
		c-1.46-0.07-3.12-0.6-4.36-0.09c-5.18,2.11-10.56,1.78-15.93,1.86c-0.77,0.01-1.71-0.07-1.58,1.47c4.18,0.53,8.4,0.29,12.78,0.16
		c0.85-0.57,1.79-1.2,2.47-1.65C351.71,231.27,353.66,231.09,356.17,230.47z M310.23,193.14c-0.46-2.06,0.88-4.63-1.85-6.36
		c-2.48,3.41-2.6,6.99-1.97,10.58c1.1,1.06,2.07,1.46,3.25,0.59C310.4,196.76,310.13,195.41,310.23,193.14z M300.72,192.57
		c-2.55,0.53-3.68,2.26-4.1,4.67c3.51,0.48,3.51,0.48,6.39-2.21c-0.08-0.49-0.07-1.16-0.34-1.69
		C302.49,192.98,301.91,192.83,300.72,192.57z M253.96,233.14c1.45-0.06,3.09,0.67,4.79-1.09c-3.38-0.86-6.21-0.56-9.17-0.61
		C250.33,233.36,251.74,233.1,253.96,233.14z M244.67,230.82c0.76,0.39,1.52,0.49,2.36-0.19
		C246.09,230.9,245.69,229.2,244.67,230.82z M200.39,224.96c-0.44-0.39-0.86-0.61-1.23,0.11
		C199.46,225.17,199.72,225.24,200.39,224.96z M199.93,230.12c0.1,0.26,0.21,0.53,0.32,0.79
		C200.82,230.58,200.75,230.22,199.93,230.12z M242.21,229.95l-0.31-0.11C241.91,229.85,241.99,230.1,242.21,229.95z"/>
	<path d="M116.57,412.3c1.46-1.25,1.99-2.66,2.46-4.06c0.43-1.26,1.29-1.84,2.75-2.2c5.11,1.28,9.6,4.36,14.36,6.89
		c4.03,0.53,7.89-0.03,11.15-1.81c1.69,0.04,2.28,1.34,3.44,1.65c4.75-1.46,7.01-6.18,10.79-8.52c2.3-0.39,3.23,1.03,4.27,2.34
		c0.62,5.29-0.59,10.73,0.68,16.01c2.16-0.15,3.18-1.19,3.34-2.45c0.29-2.33,1.6-3.91,3.17-5.36c2.21-2.02,4.05-4.28,5-7.06
		c1.58-0.9,3.02-1.13,4.78-1.01c4.41,0.31,8.87,1.09,13.28-0.49c1.31-0.47,2.93-0.07,4.42-0.07c1.91,1.77,3.88,3.34,2.93,6.65
		c-1.22,1.13-2.66,2.47-4.39,4.08c-1.35,2.49-1.6,5.62-1.36,8.76c0.38,4.86-0.47,9.93,2.7,14.34c0.98,1.36,0.69,3.22-0.08,4.76
		c-0.66,1.32-1.48,2.56-2.29,3.93c-0.1,9.77-0.61,19.63-0.11,30.1c4.24-2.68,3.11-7.88,6.63-10.21c2.65-0.31,3.52,1.91,3.77,3.67
		c0.58,4.03,1.11,8.18-0.39,12.33c-2.01,0.93-3.5,2.37-4.51,4.34c-0.36,0.7-1,1.46-1.7,1.77c-2.96,1.29-4.93,3.65-7.02,5.95
		c-1.58,1.74-3.79,1.81-5.09,1.63c-5.38-1.29-5.6-6.3-8.58-8.37c-0.79-2.83,0.57-5.72-1.69-7.98c-2.14-1-3.68,0.03-5.08,1.65
		c-2.7,3.12-5.37,6.27-8.19,9.28c-2.24,2.4-4.54,4.73-7.88,5.76c-2.78,0.85-5.43,1.02-8.26,0.26c-3.31-0.89-6.39-2.59-9.95-2.72
		c-1.05-0.04-2.29-0.73-3.05-1.52c-2.43-2.52-5.62-3.96-8.31-6.13c-5.97-4.8-11.19-10.04-14.13-17.25
		c-0.24-0.59-0.73-1.08-1.13-1.66c0-2.66,0-5.3,0-7.8c2.32-5.18,4.28-10.27,5.16-15.81c0.7-4.44,3.54-8.04,6.01-11.66
		c1.37-2,2.82-3.91,4.12-6.29c-3.58-2.42-7.74-0.17-10.92-2.15c-2.49,0.99-4.87,1.7-6.13,3.8c-3.17,0.94-4.02-1.07-4.81-3.2
		c0.47-1.73,0.88-3.5,1.44-5.21c0.52-1.57,1.22-3.08,3.02-3.64C113.79,416.84,115.07,414.71,116.57,412.3z M163.91,457.18
		c0.19,6.05,0.37,12.09,0.56,18.38c0.93,0.81,2.05,1.78,3.01,2.62c1.5,0.35,2.77,0.64,4.13,0.96c1.95-0.66,3.97-1.35,5.73-1.94
		c4.13-5.88,4.93-13.23,2.21-18.87c-1.86-1.13-4-1.39-5.95-1.84c-2.58-2.49-2.58-2.49-2.24-5.37c2.81-1.55,5.28-3.86,8.65-3.71
		c0.77-3.02,1.09-19.77,0.45-21.54c-1.01-0.92-1.88-2.16-3.28-2.8c-5.26,0.13-8.66,2.89-10.2,8.12c-1.28,4.36-1.05,8.8-0.86,13.36
		c-0.74,1.03-1.49,2.09-2.22,3.11C163.91,450.57,163.91,453.37,163.91,457.18z M138.21,472.14c2.21,1.3,3.26-0.47,4.16-1.27
		c1.27-3.79,1.67-7.2,1.59-10.69c-0.08-3.45,0.36-6.9-0.76-10.3c-0.34-1.03-0.22-2.35,0.07-3.44c1.42-5.38,0.62-10.84,0.71-16.27
		c0.02-1.15-0.01-2.35-1.36-3.09c-1.79-0.37-3.36,0.71-5.14,1.14c-1.85,3.55-4.77,6.26-7.14,9.25c-0.28,4.31-0.18,8.41-0.87,12.52
		c-0.57,3.38-0.8,7.19,1.06,10.17c1.43,2.3,1.94,4.82,3.19,7.34C135.47,468.29,136.31,470.19,138.21,472.14z M159.93,435.34
		c-0.03-1.98,0.11-3.98-0.14-5.93c-0.43-3.34-0.26-6.98-3.44-9.32c-2.55-0.29-3.42,1.46-4.33,3.3c-2.63,5.34-1.62,11.27-2.81,16.84
		c-0.12,0.57,0.36,1.25,0.44,1.9c0.62,4.59,0.84,9.3,0.06,13.77c-0.95,5.46-0.28,10.83-0.46,16.23c-0.03,0.92,0.56,1.85,0.84,2.68
		c1.22,0.81,2.32,1.53,3.75,1.54c3.66-0.87,4.91-3.72,5-6.97c0.18-6.25,0.5-12.48,0.94-18.71
		C160.13,445.91,159.91,441.11,159.93,435.34z"/>
	<path d="M306.16,701.86c0.26,5.57-0.19,10.7,1.13,15.9c2.1-0.61,2.37-2.2,2.78-3.77c1.36-5.19,0.89-10.51,1.07-15.78
		c0.14-3.93,0.03-7.86,0.03-11.3c0.93-1.07,1.56-1.03,2.33-0.79c0.17,0.36,0.53,0.78,0.55,1.22c0.54,9.38,1.54,18.74,1.16,28.16
		c-0.3,7.38-4.23,12.93-9.28,17.88c-0.35,0.35-0.73,0.66-1.27,1.14c-0.73,2.53-1.63,5.2-4.71,7.23c-2.91-0.58-5.77-2.19-7.99-3.73
		c-1.39-1.77-0.38-3.55-1.88-4.99c-2.05,0.79-4.23,0.48-6.27-0.76c-2.82-3.78-0.42-8.97-3.7-12.39c0.96-4.3,2-8.3,1.7-12.37
		c-0.39-5.32,1.37-10.78-1.13-15.97c-0.4-0.84-0.33-1.93-0.38-2.91c-0.32-6.72-0.67-13.44-0.89-20.16
		c-0.09-2.63,0.16-5.25,0.38-7.89c0.64-7.72,0.77-15.48-0.17-23.96c1.05-3.36,2.22-7.5,1.55-11.87c-0.31-2.05,0.79-3.83,0.94-5.82
		c0.24-3.36-0.6-6.59-1.15-9.76c-0.93-5.45-0.43-10.85-0.67-16.26c-0.14-3.09,0.32-6.22-0.37-9.12c-1.94-1.65-4.04-0.67-5.95-1
		c-2.24-0.49-4.14-1.83-6.47-2.31c-2.73-0.55-4.87-2.66-6.73-4.78c-0.57-0.65-0.56-1.52-0.11-2.72c1.27-1.51,3.62-1.4,5.66-2.51
		c4.63,1.85,9.89,1.74,14.31,4.72c1.23,0.83,3.28,0.35,4.8,0.89c5.71,2.02,11.57,3.36,18.12,4.33c3.97-1.27,8.49-2.71,13.46-4.29
		c1.07-1.85,3.01-2.95,5.62-3.47c2.86-0.57,5.8-1.13,8.23-2.67c2.06,0.86,3.87,1.62,5.59,2.33c0.83,1.15,0.71,2.27,0.42,3.39
		c-2.13,2.68-4.77,4.39-8.16,5.09c-2.48,0.51-4.31,2.32-6.19,3.91c-1.75,1.47-3.05,3.59-5.57,3.16c0,22.52-0.05,44.45,0.08,66.39
		c0.01,2.37-0.84,4.48-1.12,6.74c-0.52,4.09-1.04,8.15-0.95,12.28c0.02,1.01-0.12,2.01-1.47,2.41c-1.24-6.91-3.15-13.7-2.52-20.82
		c0.36-4.09-0.75-8.16-0.14-12.27c0.25-1.71-0.32-3.29-1.98-4.19c-1.74-0.94-2.08-2.43-1.76-4.45c0.86-0.94,1.85-2.04,2.87-3.17
		c0.54-2.97,0.04-5.89,0.02-8.82c-1.58-0.01-1.87,1.82-3.43,1.46c-1.19-1.02-1.66-2.58-2.29-3.91c1.05-1.62,2.48-1.73,4.32-1.29
		c-0.18-2.99-0.74-5.52-0.44-7.82c-1.36-1.09-2.48-0.89-3.84-0.54c-1.28,1.41-2.17,3.44-4.02,4.32c0.07,2.16,0.07,2.16,1.45,3.84
		c-0.45,1.13-0.98,2.43-1.51,3.74c0.34,1.16,0.65,2.25,0.97,3.35c-0.29,0.66-0.45,1.34-0.83,1.85c-3.34,4.39-4.45,9.31-4.23,14.8
		c0.32,7.88,0.26,15.78,0.23,23.66c-0.01,1.85,0.42,3.59,0.6,5.39c0.59,5.97-0.55,11.86-1.01,17.77c-0.18,2.39-1.77,4.49-1.98,7.07
		c-0.43,5.27,0.66,10.51,0.06,15.74c-0.55,4.83,1.76,8.95,2.86,13.36c0.09,0.37,0.69,0.62,1.09,0.96c2.14-0.58,2.2-2.24,2.2-3.91
		c0-4.3-0.08-8.6-0.02-12.9c0.04-2.96-0.1-5.94,0.64-8.87c0.23-0.94,0.24-2.01,0.03-2.96c-0.95-4.39,0.05-8.76,0.06-13.14
		c0-5.13,0.04-10.25,0.16-15.38c0.04-1.73-0.41-3.6,1.04-5.66c1.62,1.91,1.84,3.9,1.89,5.95c0.07,3.31,0.01,6.62,0.24,9.92
		c0.44,6.23,0.53,12.49,1.75,18.65C306.21,698.68,306.09,700.04,306.16,701.86z M289.14,654.54c-0.1,1.04-0.72,1.79-1.32,2.59
		c-1.56,2.11-1.91,4.44-0.99,7.34c2.61-0.71,3.2-2.71,3.46-4.8c0.28-2.25,0.35-4.53,0.48-6.81c0.04-0.58,0.37-1.39-0.76-1.34
		C289.18,652.06,289.46,652.97,289.14,654.54z M308.15,604.07c-0.17-0.42-0.34-0.85-0.58-1.45c-2.27,0.94-4.72,1.19-6.33,2.72
		c-0.36,1.01-0.26,1.59,0.59,2.2C303.88,606.95,306.51,607.35,308.15,604.07z M288.77,637.26c-0.98,1.03-2.5,1.74-2.23,3.53
		c0.1,0.67,0.54,1.13,1.33,1.24c0.99-0.77,2.01-1.57,3.07-2.41c0.35-2.01,0.67-3.99-0.06-6.06
		C289.33,634.26,289.47,635.55,288.77,637.26z"/>
	<path d="M202.98,594.9c1.95-3.05,3.66-5.83,5.47-8.78c-3.31-0.5-3.05,3-4.9,3.94c-0.96,0.73-2.02,1.04-3.18,0.45
		c-0.06-0.3-0.22-0.61-0.15-0.85c0.2-0.62,0.33-1.45,0.79-1.78c5.71-4.13,7.68-10.98,11.88-16.23c4.59-5.75,8.48-12.06,12.61-18.03
		c0.83-0.8,1.6-0.39,2.45-0.1c0.54-0.51,1.1-1.03,1.65-1.54c2.76-0.62,5.37-0.15,7.61,1.36c2.1,1.42,4.35,2.27,6.74,2.94
		c5.53,1.55,8.9,5.17,10.28,10.55c-0.49,1.31-1.12,2.25-2.4,2.87c-1.78,0.44-3.73,0.52-5.88-0.06c-2.72-2.33-5.88-4.29-9.4-6.15
		c-13.37,17.56-25.15,35.98-38.77,52.99c1.33,1.28,2.54,0.96,3.65,0.91c6.59-0.31,13.19,0.21,19.8-0.62
		c2.99-0.37,6.15,0.66,8.97,1.02c1.63,1.35,1.49,2.77,0.98,4.39c-1.51,1.84-3.35,3.36-5.57,4.6c-5.14,2.9-10.02,6.21-14.8,9.68
		c-3.44,2.49-7.04,4.91-10.89,6.68c-5.58,2.56-10,6.79-15.29,9.74c-4.85,2.71-9.36,5.99-14.69,7.83c-1.53,0.53-2.9,1.53-4.34,2.32
		c-8.63,4.78-15.94,11.52-24.48,16.46c-4.23,2.44-8.41,5.03-11.81,8.67c-1,1.07-2.24,1.32-3.56,0.66c-0.2-0.32-0.56-0.64-0.51-0.86
		c1.34-5.7,0.34-11.8,3.09-17.29c1.17-2.34,1.1-5.26,2.05-7.54c1.52-3.64,1.8-7.58,3.19-10.86c1-1.08,1.85-1.41,3.01-0.81
		c1.96,4.17-0.64,8.33-0.32,12.5c0.32,4.16-0.97,8.12-1.2,12.29c5.28-1.11,7.18-5.86,10.95-9.3c0.55-1.14-0.12-3.44,1.8-4.71
		c1.8,0.03,1.22,2.8,3.58,2.62c1.82-3.32-0.09-7.17,0.83-10.77c0.57-0.47,1.19-0.98,1.71-1.4c0.84-2.76-1.19-6.04,2.03-8.52
		c2.38,2.56,3.14,5.77,4.85,9.03c0.2-5.16-1.84-9.8-0.78-14.39c2.52-1.92,3.36,1.49,5.42,1.52c0.91-2.88-0.07-5.57-0.48-8.39
		c2.64-1.56,3.61-4.71,6.73-5.59c0.2-2.31,1.39-4.13,2.24-6.18c-0.17-0.78-0.15-1.7-0.56-2.34c-3.11-4.92-5.24-10.24-6.19-15.94
		c-0.82-4.91-3.82-9.18-4.04-14.16c-0.14-3.09-2.1-5.2-2.96-8.58c-1.81,3.21-3.21,5.71-4.53,8.05c-0.77,0.5-1.38,0.53-2.44-0.28
		c1.04-7.2,0.55-14.92,3.55-22.52c0.76-1.22,2.24-1.85,3.84-2.17c3.91,1.25,3.16,4.6,3.44,7.32c3.24,6.68,5.18,13.79,8.71,20.57
		c4.36-2.36,6.63-7.15,11.64-6.9c0.19-6.98,3.35-12.05,6.9-16.62c2.7-1.14,4.59-0.6,6.12,1.25c0.59,3.74,0.59,3.74-0.93,8.71
		c-1,1.05-1.98,2.16-3.06,3.18c-0.96,0.91-2.01,1.71-3.29,2.77c-1,0.09-2.29,0.2-3.53,0.31c-0.73,1.06,0.6,1.83,0.2,2.76
		c-3.06,5.57-7.59,10.26-9.87,16.24c0.95,3.68,3.45,6.54,4.18,10.15c1.56,0.09,2.16-1.17,2.41-2.06c1.24-4.27,4.14-7.42,6.84-10.72
		c1.95-2.39,1.99-2.36,5.89-2.46c2.43,1.42,0.92,3.45,0.59,5.61C200.03,600.6,200.97,597.53,202.98,594.9z M195.44,604.75
		c0.4,0.3,0.12-0.22,0.68-0.33c0.35-0.21,0.35-0.36,0.01-0.47C196.02,604.18,195.92,604.42,195.44,604.75z M191.95,611.22
		c0.39-1.11,2.07-1.66,1.49-3.58c-1.64,1.44-3.14,2.62-4.7,3.71c-1.58,1.12-3.6,2.21-3.82,4.8c1.57,0.48,2.96,0.59,4.55-0.12
		C190.18,614.74,190.96,613.33,191.95,611.22z"/>
	<path d="M409.36,582.8c1.91,0.43,3.83,0.87,5.7,1.29c2.46,2.21,4.85,4.36,7.71,6.94c1.7-4.83,2.65-9.43,4.88-13.3
		c2.4-4.17,3.51-8.42,3.77-12.97c0.81-1.48,2.15-2.11,3.73-2.74c2.37,0.58,3.35,2.83,4.82,4.45c0.61,6.99,1.2,13.89,1.87,21.5
		c-4.23-1.81-4.01-5.84-6.16-8.06c-1.54,0-1.19,1.29-1.53,2.12c-1.85,4.57-3,9.33-4.35,14.06c-1.87,6.55-3.2,13.34-6.43,19.47
		c-0.68,1.3-1.07,2.75-1.67,4.34c0.94,1.96,1.99,4.02,1.74,6.43c2.96,0.77,3.49,4.45,6.47,4.47c1.1,3.94-0.62,7.45-0.43,11.11
		c2.44-0.7,2.92-4.5,6.45-3.29c1.26,5.32-2.19,10.16-2.54,16.11c3.86-2.98,2.66-7.88,6.43-10.43c1.26,2.85,0.26,5.65,0.74,8.24
		c0.4,1.21,1.86,0.47,2.55,1.46c1.17,3.3-0.62,7.05,0.86,10.72c1.83-0.05,1.54-2.68,3.82-2.41c1.05,0.86,0.41,2.86,1.97,4.73
		c3.26,2.71,5.23,8.12,10.99,9.78c0.43-4.57-2.82-8.36-2.12-12.93c0.63-4.09-1.88-8.31-0.09-12.4c0.78-0.38,1.41-0.5,2.24,0.05
		c1.33,1.32,0.91,3.62,1.89,5.22c1.98,3.21,1.44,7.16,3.09,10.23c1.71,3.19,2.52,6.43,2.68,9.86c0.19,3.88,0.21,7.71,2.67,10.81
		c-1.83,2.33-3.65,1.54-4.97,0.34c-7.05-6.43-15.78-10.41-23.3-16.14c-4.16-3.17-8.55-5.99-12.92-8.86
		c-2.92-1.92-6.2-3.05-9.27-4.54c-5.64-2.74-10.72-6.28-15.92-9.65c-5.2-3.37-10.61-6.36-15.8-9.73
		c-7.83-5.09-15.64-10.22-23.76-15.53c-0.42-1.7-1.77-3.59,0.27-5.9c3.99,0.15,8.07-0.99,12.42-0.5c5.07,0.57,10.25,0.16,15.38,0.19
		c1.17,0.01,2.32,0,3.37-1.57c-6.09-8.48-12.26-17.07-18.43-25.65c-6.19-8.61-12.39-17.21-18.67-25.94c-1.63,1.04-3.33,1.79-4.58,3
		c-2.78,2.68-5.89,3.46-9.47,2.46c-1.46-0.63-1.79-1.93-2.18-3.44c2.13-5.36,5.76-9.25,11.92-10.32c1.49-0.26,2.75-1.01,3.98-1.91
		c2.65-1.92,5.59-2.77,8.96-1.92c4.24,4.5,7.21,10.01,11.02,14.9c3.69,4.73,7.12,9.64,9.79,15.1c1.09,2.23,3.45,3.85,5.28,5.7
		c0.7,0.72,1.47,1.35,0.99,2.71c-2.86,1.67-3.7-2.6-6.15-2.47c0.84,3.18,5.4,10.58,9.21,14.83c0.5,0.68,0.27,1.31,0.99,1.19
		c0.23-0.77-0.07-1.2-0.82-1.36c0.72-1.81-1.54-3.85,0.89-5.87c1.64-0.88,3.3,0.37,5.01,1.26c3.41,4.52,6.55,9.19,9.14,15.32
		c1.43-4.45,3.85-7.5,4.5-11.92c-1.33-5.91-7.01-10.1-9.26-16.15c0.24-0.67,0.46-1.29,0.69-2.21
		C409.43,582.75,409.36,582.8,409.36,582.8z M403.28,612.18c1.03,1.44,2.06,2.87,3,4.19c1.51,0.22,2.81,0.56,3.94-0.46
		c-1.14-3.03-4.03-5.67-9.53-8.65C400.78,609.08,402.77,609.86,403.28,612.18z M438.49,655.87c-0.04,0.48-0.07,1,0.53,1.11
		c0.59,0.11,0.94-0.25,0.9-0.83C439.87,655.57,439.45,655.39,438.49,655.87z"/>
	<path d="M214.85,431.06c1.34-1.47,2.45-2.69,3.76-4.13c3.4-0.7,6.92-0.11,10.67,1.29c2.23,2.19,5.18,4.16,6.08,7.64
		c-0.3,2.48-1.63,4.14-2.94,6.05c-2.5,3.64-3.59,8.07-3.7,12.55c-0.12,4.92-0.65,9.86,0.71,14.75c0.52,1.86,0.3,3.92,0.44,6.3
		c0.82,0.82,1.85,1.86,2.65,2.65c2.4,0.45,4.35,0.64,6.39,0.1c1.95-1.15,3.03-3.45,5.16-4.07c1.58-5.56,1.15-11.06,2.09-16.42
		c0.8-4.57-0.07-9.2-1.45-13.65c-0.24-0.78-0.29-1.85-0.83-2.26c-2.15-1.64-2.51-4.17-3.58-6.31c0.43-2.54,2.72-3.23,4.6-4.89
		c0.5-0.94,1.19-2.23,1.71-3.2c1.99-1.47,3.88-1.9,5.92-1.78c1.98,0.12,3.95,0.24,6.05,0.37c1,0.66,2.09,1.39,3.33,2.21
		c1.08,1.64,2.25,3.42,3.45,5.25c0,2.15,0,4.29,0,6.55c-2.93,4.76-2.31,10.73-4.82,15.26c-0.32,2.55,0.61,4.49,0.11,6.76
		c-0.66,2.98-0.01,6.15,1.52,9.07c2.56,4.88,4.28,10.02,2.82,15.63c-0.44,1.7,0.7,3.22-0.04,5.38c-1.27,2.07-4.32,3.2-5.52,5.73
		c-2.22,0.75-4.2,0.53-6.11,0.37c-3.43-1.62-4.64-5.07-6.62-7.46c-0.98-3.12,1.36-6.63-1.95-9.05c-2.99,0.38-4.39,2.6-5.82,4.81
		c-2.31,3.57-4.64,7.13-6.75,10.36c-2.12,1.22-4.02,1.76-5.82,2.23c-3.98-0.12-6.74-2.71-10.27-4.48c-0.22-2.77-2.54-4.54-4.24-6.77
		c-1.74-6.71,2.32-12.89,1.8-19.86c-1.47-2.78-2.62-6.02-1.92-10.15c1.43-1.79,2.91-3.93,0.65-6.91c-1.67-2.21-0.64-4.69,1.03-6.84
		c-2.16-2.89-2.38-6.11-1.72-9.54C212.65,433.54,213.63,432.43,214.85,431.06z"/>
	<path d="M439.92,427.55c2.35-2.53,4.5-1.05,6.61-0.38c3.28,4.47,4.98,9.77,8.07,14.89c5.43-3.69,7.49-9.42,10.42-14.58
		c2.38-1.8,5.13-1.91,8.25-1.43c2.12,1.7,4.48,3.26,7.45,4.13c2.84,0.82,4.8,3.34,6.32,5.75c-0.14,2.36-1.79,3.7-2.79,5.55
		c-0.58,4.56,0.89,9.48-1.6,14.1c2.31,4.71,2.04,9.7,1.65,14.78c-0.28,3.65,0.78,7.19,2.6,10.38c2.61,4.57,2.55,6.33-0.9,10.05
		c-1.01,1.09-2.08,2.13-3.08,3.15c-3.52,1.2-6.96,2.66-10.66,0.01c-1.01-3.44-4.46-5.87-4.75-7.99c0.63-14.24,2.75-26.64,0.54-38.6
		c-3.49-3.12-6.58-3.51-9.98-1.18c-0.91,0.62-2.13,0.78-3.23,1.16c-1.69,3.56-1.96,7.08-1.46,11.02c0.39,3.12,0.14,6.54-0.95,9.68
		c-0.93,2.69-1.5,5.41-0.76,9.17c1.07,2.83,3.23,6.11,5.59,9.54c-2.27,4.82-7.41,6.75-10.59,10.8c-4.99-0.61-8.22-4.13-12.31-6.38
		c0-6.14,0-12.23,0-18.44c0.57-0.92,1.17-1.89,1.7-2.74c0.63-3.53-0.48-7.13,1.53-10.3c-2.01-3.91-0.81-8.22-2.21-12.19
		c-0.52-1.47-0.74-3.17-1.3-4.7c-1.5-4.08-1.33-8.04,0.45-11.86C436.27,429.73,438.49,429.61,439.92,427.55z"/>
	<path d="M387.62,496.4c-2.14-0.07-3.67-0.64-5.29-1.47c-1.24-1.36-2.57-2.82-3.52-3.85c-4.17-1.75-6.95,0.13-9.74,1.94
		c-0.39,0.25-0.55,0.92-0.95,1.11c-5.36,2.52-6.05,3.97-11.42,0.38c-5.26-5.37-6.1-11.82-6.04-18.52c0.05-4.76-0.47-9.59,1.52-14.11
		c1.62-3.44,5.63-3.13,7.98-5.02c0.96-1.41,0.66-2.72,0.57-4.04c-3.51-3.38-5.17-7.92-7.74-12.02c-0.22-4.29-0.22-4.29,2.36-6.77
		c2.66-0.92,5.6,0.85,8.52-0.93c1.82-2.74,3.81-5.75,5.86-8.84c2.41-0.67,4.86-0.32,7.46-0.19c2.52,2.65,5.9,4.01,9.31,5.73
		c1.29,0,2.77,0,4.15,0c2.05-0.66,2.1-3.67,4.66-3.53c1.26,0.05,2.49,0.44,3.69,1.44c0.66,1.33,1.33,2.86,0.88,4.53
		c-0.85,3.11-1.03,6.35-3.07,9.2c-1.49,2.08-2.07,4.8-3.02,7.15c-0.49,3.92-0.11,7.65,1.89,11.23c-2.43,3.91-2.13,8.2-1.96,12.45
		c1.3,3.73,4.37,6.09,6.7,8.74c0.8,4.04-2.2,7.11-1.84,10.58c-1.53,2.6-4.01,3.7-6.09,5.24
		C390.98,496.69,389.52,496.55,387.62,496.4z M371.33,460.8c-4.23,1.39-5.52,2.91-5.61,6.92c-0.04,1.81,0.16,3.62,0.25,5.62
		c1.91,2.31,2.37,5.65,4.92,7.87c1.4,0.27,2.83,0.65,4.64,0.05c1.22-1.37,2.63-2.94,3.97-4.44c0-2.22,0.09-4.2-0.02-6.18
		C379.23,466.04,376.15,461.92,371.33,460.8z M372.62,442.2c-1.26-0.48-2.56-0.53-4.11-0.34c-1.68,1.62-4.6,2.32-4.81,5.69
		c0.46,0.87,1,1.87,1.47,2.76c1.82,1.31,3.7,2.23,5.38,3.57c1.98,1.58,4.07,4.2,7.67,2.32c0.97-2.03,2.07-4.35,3.25-6.83
		C379.41,446.36,376.03,444.85,372.62,442.2z"/>
	<path d="M195.16,318.24c1.75,2.67,1.66,5.35,1.76,7.77c1.29,2.62,3.28,2.71,5.57,2.2c2.76-0.62,5.05-2.48,7.7-2.71
		c3.4-2.92,6.63-5.69,9.85-8.45c1.44,0.34,1.65,1.4,1.72,2.63c0.27,4.74-2.48,8.29-5.41,11.23c-2.06,2.06-4.32,4.19-7.14,5.74
		c-2.82,1.54-5.67,2.2-8.59,3.02c-2.66,0.75-5.68,0.46-7.41,2.57c-8.51,0.85-14.75-3.86-21.64-7.16c-3.3-3.16-6.79-6.5-10.41-9.97
		c-0.75-3.14-0.74-6.81-3.99-8.68c-0.33-4.33-0.57-8.27-0.28-12.01c1.36-3.34,4.35-5.06,6.2-7.68c1.81-2.56,3.67-4.91,6.24-6.82
		c1.64-1.21,2.88-3.09,4.24-4.71c3.85-4.62,9.11-7.91,12.26-13.01c3.72-0.21,6.97-0.44,10.02,1.35c0.67,0.4,1.58,0.47,2.39,0.54
		c3.12,0.26,6.18,0.53,8.82,2.6c0.66,0.51,1.9,0.28,2.74,0.38c2.32-1.14,3.32-3.34,4.79-4.95c1.57-0.43,3.02-0.44,4.63,0.25
		c0.71,1.1,1.51,2.34,2.42,3.76c-0.98,4.65-4.87,7.53-7.08,11.47c-2.42,1.14-4.79,2.27-6.54,3.1c-2.8,0.14-3.6-2.1-5.76-2.58
		c-1.91,0.51-4.13,1.16-6.18,0.8c-2.3,1.52-2.48,3.52-1.91,5.47c1.21,4.16,0.54,8.48,1.37,12.71
		C196.22,310.52,195.27,314.26,195.16,318.24z M175.59,290.12c-2.07,1.45-2.68,4.11-4.63,5.32c-0.41,2.07-0.65,3.87-1.13,5.61
		c-2.01,7.22,0.64,13.12,5.09,18.56c1.5,1.84,3.23,2.55,5.83,1.68c-0.76-3.22,0.72-6.39-0.19-9.3c-1.09-3.5-0.83-6.74,0.26-10.01
		c-1.93-3.14-0.36-6.59-1.18-9.55C178.73,291.07,177.43,290.66,175.59,290.12z M190.11,302.21c0.75-3.24,0.39-6.55,0.55-9.83
		c0.08-1.77-0.39-3.33-2.17-4.06c-1.78-0.73-3.18,0.01-4.59,1.73c0,10.24,0,20.78,0,31.32c0,1.37,0.64,2.53,1.19,3.73
		c1.6,1.15,3.16,2.51,5.25,1.06c1.39-1.68,1.52-3.58,1.35-5.62C191.21,314.67,190.81,308.79,190.11,302.21z"/>
	<path d="M293.24,474.69c0.03,2.27,0.03,4.09,0.03,5.64c1.36,4.39,7.26,4.72,7.79,10.37c-0.76,4.59-5.44,7.03-8.65,10.57
		c-2.17,0.21-4.31,0.43-6.61-0.01c-1.12-1.04-2.32-2.17-2.99-2.8c-5.08-2.72-10.85-3.03-13.27-8.46c0.8-3.99,2.77-7.12,5.64-10.24
		c1-6.59,3.21-13.42,1.25-20.78c0.59-2.17,1.23-4.54,1.87-6.91c-0.47-2.41-0.94-4.82-1.45-7.37c-2.07-1.21-4.19-2.44-6.3-3.67
		c-0.55-1.09-0.53-2.22-0.24-3.4c1.33-1.9,3.27-3.19,5.01-4.66c1.89-5.13,2.7-10.23,0.66-15.5c-2.8-2.31-5.15-4.93-5.67-8.75
		c1.37-2.23,3.6-2.89,5.51-3.76c4.16,1.09,7.08,4.44,10.25,4.83c2.32-0.07,2.94-1.28,3.99-1.66c3.01-0.42,6,4.22,6.07,9.35
		c-0.15,1.54-1.99,1.67-2.66,3.53c-1.01,11.24,0.59,23.17-1.06,35.38c0.37,1.02,0.88,2.41,1.38,3.78c-1.18,3.83,0.04,7.9-1.22,11.73
		C292.33,472.54,292.97,473.45,293.24,474.69z"/>
	<path d="M445.22,311.76c-0.03-7.1-0.03-13.71-0.01-20.31c0-2.18,0.56-4.26,1.47-6.21c2.06-4.4,2.29-8.56-1.46-12.17
		c0.18-4.74-0.93-9.29-0.16-13.9c0.11-0.64,0.21-1.38,0.01-1.97c-1.03-3.12-0.45-6.16,0.35-9.25c2.16-2.98,4.43-5.88,9.09-4.36
		c1.33,1.27,2.01,3.1,2.45,4.58c0.11,1.95-1.41,2.61-1.82,4.11c0,6.04,0,12.31,0,18.58c0,0.49-0.13,1.15,0.13,1.46
		c3.35,4.06,1.4,8.66,0.69,12.72c-1.04,5.95-0.57,11.84-0.8,17.74c-0.32,8.23,0.16,16.46-0.63,24.71
		c-0.63,6.55-0.26,13.21-0.29,19.81c-0.03,6.59-0.4,13.15-0.72,19.73c-0.44,8.85-0.65,17.77,0.18,26.68
		c0.5,5.29,1.26,10.71,0.2,16.19c-1.92,0.95-3.9,1.68-5.38,3.06c-1.98-0.49-2.96-1.81-3.97-3.17c-0.68-2.06-0.37-4.22-0.47-6.35
		c-0.12-2.63-0.12-5.24-0.7-7.86c-1.18-5.33-0.17-10.75-0.17-16.13c0-6.91,0.65-13.82,0.85-20.73c0.14-4.78,0.09-9.57-0.02-14.35
		C443.78,333.64,444.82,322.96,445.22,311.76z"/>
	<path d="M326.57,424.18c4.5,2.7,8.9,3.78,15.61,3.86c1.67,1.08,3.49,2.2,3.92,4.89c-0.57,2.29-2.64,4.38-2.21,6.77
		c-2.44,5.21-7.1,5.88-11.82,6.89c-2-1.08-4.16-2.26-6.18-3.35c-1.37,0.07-2.43,0.46-3.45,1.07c-1.32,1.74-1.66,3.9-2.37,5.78
		c1.28,7.58,1.61,15.13,2.18,22.71c1.72,1.47,3.47,2.97,5.42,4.64c2.06,0,4.33,0.47,6.89-0.19c0.31-2.66,1.17-5.1,3.92-6.67
		c2.78-0.19,4.1,1.81,5.45,4.32c-3.88,8.51-10.07,15.03-17.54,20.29c-1.99,0.57-3.83,0.71-5.28-0.74c-1.87-1.87-4.2-3.09-6.26-4.66
		c-2.24-1.71-5.05-1.37-7.26-2.74c-2.56-4.14-1.55-8.7-1.47-13.07c0.07-3.64-0.08-7.26-0.21-10.89c-0.02-0.65,0.09-1.47-0.25-1.93
		c-2.95-4.04-1.3-8.43-0.42-12.4c0.84-3.81,0.84-7.47,0.75-11.27c1.19-4.53,4.73-4.98,8.47-4.63c3.03-2.64,5.89-5.1,8.71-7.61
		C324.07,424.47,324.91,423.71,326.57,424.18z"/>
	<path d="M141.1,247.43c0.7-1.53,0.81-2.98,2.24-3.83c1.8-0.74,3.69-0.52,5.68,0.61c3.44,3.38,4.94,7.44,3.43,12.38
		c-0.1,0.31-0.25,0.69-0.16,0.96c1.7,5.11-0.62,10.13-0.08,15.31c-1.61,1.95-2.61,4.16-3.12,6.87c0.4,2.37,1.17,4.85,3.16,7.33
		c0,4.48-0.09,9.28,0.02,14.07c0.2,9.47,0.21,18.97,0.88,28.41c0.45,6.34,0.24,12.64,0.39,18.95c0.06,2.65,0.37,5.2-0.58,7.83
		c1.28,3.75,0.75,7.7,1.06,11.58c0.3,3.78-0.69,7.76,0.62,11.32c1.45,3.93-2.52,7.86,0.69,11.5c-1.05,2.41-1.42,4.84-1.42,7.16
		c-0.98,3.02-3.08,4.82-5.73,5.94c-1.27,0.54-2.62,0.32-3.85-1.37c-0.59-2.8-0.39-6.09-0.37-9.37c0.05-8.6,0.77-17.26-0.07-25.77
		c-1.41-14.43-0.19-28.88-1.21-43.31c-0.91-12.91-0.53-25.91-0.75-38.87c-0.03-1.8,0.03-3.58-0.69-5.35
		c-0.69-1.7-0.59-3.55,0.22-5.31c0.34-0.73,0.63-1.57,0.63-2.35c0.02-4.6-0.09-9.22,0.58-13.78
		C143.23,254.62,141.99,251.26,141.1,247.43z"/>
	<path d="M325.76,287.76c2.67-0.7,4.89,0.43,7.03,0.2c5.52,4.98,6.51,9.3,3.39,15.77c-1.46,3.03-1.92,6-1.79,9.39
		c0.1,2.76-0.43,5.84,0.7,8.15c1.41,2.88,1.86,5.86,2.73,9.04c-1.09,2.3-0.83,4.97-0.78,7.45c-2.36,2.59-4.37,5.36-8.55,4.45
		c-3.78-2.09-5.1-5.57-4.62-9.66c-0.46-1.2-1.19-1.85-2.25-2.51c-2.26,0.94-3.51,2.82-4.88,4.92c-1.33,2.04-2.56,4.19-4.09,6.14
		c-6.67,3.07-10.21,1.41-15.52-7.29c-0.35-1.65-0.25-3.31,0.12-4.92c0.98-4.23,1.26-8.41,0.06-12.67c-0.64-2.26-0.38-4.58,0.8-6.48
		c-0.22-2.83-1.73-5.38-0.11-7.78c-0.6-1.79-1.11-3.34-1.67-5.02c0.42-1.65,0.99-3.61,2.4-4.61c1.56-1.1,2.17-2.86,2.99-3.58
		c3.19-1.6,5.45-0.05,7.92,0.39c2.19,1.85,4.77,3.49,5.13,7.06c-0.39,0.86-0.72,2.01-1.37,2.93c-4.7,6.65-3.54,14.09-2.81,21.41
		c0.14,1.42,0.23,2.94,0.61,4.36c1.36,2.15,3.18,3.3,6.19,2.58c1.2-1.08,2.66-2.39,4.38-3.93c-0.12-6.92,1.36-13.88,0.16-20.93
		c-0.45-2.7-2.41-4.67-3.16-7.52C320.5,292.41,322.18,289.44,325.76,287.76z"/>
	<path d="M349.77,320.82c-0.79-2.09-2.78-2.16-4.63-3.98c-2.02-6.33-1.92-13.32,0.43-20.2c4.33-1.76,7.88-3.91,10.66-7.27
		c1.36-1.64,3.38-2.17,5.41-1.3c1.73,0.74,3.4,1.25,5.52,0.58c2.59-1.78,4.67-4.76,7.95-5.72c1.47,0.44,1.51,1.44,1.53,2.45
		c0.02,1.65-0.1,3.32,0.09,4.95c0.51,4.56-1.04,8.12-4.98,10.48c-1.38,0.82-2.3,1.82-2.66,3.45c0.44,2.96,3.49,3.09,5.27,4.61
		c4.77,7.02,4.57,14.9-0.69,22.14c-5.05,2.6-9.34,6.69-14.19,9.73c-3.36-0.44-3.96-4.81-7.7-4.58c-2.6,1.05-3.17,4.66-5.8,5.83
		c-1.47,0.17-2.47-0.32-3.52-1.17c-2.41-3.46-1.47-7.47-1.45-11.28c1.6-2.5,3.42-4.5,6.06-5.82
		C348.1,323.19,349.64,322.79,349.77,320.82z M364.59,302.33c-2.06-4.3-5.5-4.57-9.48-0.75c-0.42,7.03-0.31,7.27,3.99,8.85
		C362.03,308.8,363.11,305.82,364.59,302.33z M357.88,318.38c-0.45,1.22-1.39,2.28-1.14,3.73c2.57,4.56,2.93,4.77,7.65,4.18
		c1.39-2.32,1.89-4.79,1.1-7.48c-1.44-0.93-2.81-1.81-4.15-2.67C360.18,316.5,359.14,316.98,357.88,318.38z"/>
	<path d="M308.32,388.42c-3.36,4.33-7.3,7.52-11.49,10.42c-2.16,1.5-4.66,1.79-7.13,1.18c-3.74-0.92-7.52-0.83-11.31-0.82
		c-2.82,0.01-5.41-1.46-8.25-1.2c-0.65,0.06-1.31,0.07-1.74,0.09c-1.74,0.96-1.56,3.08-3.22,4.09c-2.3-0.15-3.06-1.76-2.68-3.7
		c0.36-1.87,0.84-3.69,2.11-5.4c2.4-3.24,3.59-6.71,1.82-11.03c-2-4.86-1.27-9.68,2.75-13.59c0.17-0.17,0.07-0.63,0.11-1.22
		c-1.95-1.89-5.87-1.31-6.83-4.78c-0.96-2.88,1.2-5.28,1.17-7.74c1.34-1.86,2.99-2.57,4.8-3.07c1.37-0.04,2.48,0.63,3.42,1.29
		c0.97,1.02,0.27,2.45,1.37,3.41c7.45,0.58,15.05-0.63,23.15,0.24c1.37,1.32,3.48,2.08,5.56,1.82c10.28,6.04,10.98,15.8,11.11,25.29
		C312.11,386.33,310.18,387.08,308.32,388.42z M301.6,369.36c-1.29-1.31-2.79-2.3-4.45-3.08c-2.14-1-4.1-1.1-5.92,1.13
		c0,4.45,0.08,9.08-0.03,13.7c-0.08,3.24,0.65,6.16,2.56,8.91c1.96,0.1,3.92,0.18,5.61,0.93c1.32-0.85,2.43-1.56,3.32-2.13
		c1.99-3.71,4.11-7.14,3.28-11.74c-0.85-1.14-2.16-2.43-2.02-4.46C304.02,371.39,303.07,370.53,301.6,369.36z M284.57,365.44
		c-0.1,7.05-0.21,14.1-0.29,21.15c-0.01,0.81,0.15,1.62,0.2,2.15c0.6,0.79,1.08,1.27,1.79,1.28c0.47,0,0.95-0.13,1.37-0.2
		c1.53-3.23,1.96-10.67,1.41-24.01c-0.01-0.31-0.23-0.6-0.43-1.1c-0.55-0.33-1.24-0.73-2.04-1.21
		C286.03,364,285.54,364.42,284.57,365.44z M281.41,367.8c-0.07-0.82-0.14-1.63-0.94-2.28c-2.52-0.94-4.45,1.45-6.9,1.18
		c-1.16,2.78-2.21,5.3-3.2,7.69c1.64,3.53,5.15,2.58,7.53,3.81c1.56-0.56,3.05-0.7,4.13-1.7
		C282.52,373.78,281.96,371.23,281.41,367.8z M273.94,387.2c2.15,2.33,4.54,3.72,8.18,1.88c-0.47-2.55,1.02-5.29-0.97-8.06
		C278.14,382.55,276,384.75,273.94,387.2z"/>
	<path d="M424.36,453.7c-0.07,2.61-0.09,4.68-0.67,6.82c-0.58,2.14-0.43,4.63-0.02,6.85c0.52,2.78,0.47,5.58,0.75,7.41
		c1.39,5.21,6.46,6.78,7.47,11.18c-1.36,5.23-5.77,7.86-9.13,11.32c-1.48,0-2.79,0-3.9,0c-4.97-2.47-8.74-5.96-11.38-10.83
		c-0.56-2.07,0.23-3.78,1.54-5.71c1.01-1.49,0.84-3.77,1.21-5.79c-1.65-5.74,0.7-12.2-2.77-17.55c0.29-2.46,2.69-3.63,2.82-6.48
		c-0.45-1.31-1.17-3.14-1.24-5.16c-2.11-1.67-3.08-4.31-5.84-5.92c0.97-6.71,5.36-10.67,11.13-14.06
		c5.27,3.24,10.8,6.02,14.38,11.67c-1.44,2.37-2.8,4.59-4.36,7.15C424.36,447.28,424.36,450.24,424.36,453.7z"/>
	<path d="M275.5,244.04c2.13,0.93,3.89,1.8,5.67,2.69c1.48,0.04,2.82-0.95,5.23-0.35c0.51,0.23,1.86,0.84,3.22,1.46
		c0.78-0.54,1.57-1.09,2.25-1.55c1.81-0.16,3.02,0.6,3.93,1.62c0.9,2.21-0.66,3.56-1.57,5.13c2.02,6.53-1.43,13.04,0.5,20.22
		c2.01,2.89,5.31,1.67,8.23,1.33c1.62-1.27,0.88-3.58,2.58-4.22c1.32-0.72,2.29,0.09,3.04,0.55c2.52-1.8,0.1-3.94,0.94-5.68
		c0.97-2,0.07-3.85-0.68-6.07c3.16-2.27,6.3-4.52,9.29-6.66c3.54,1.04,5.94,3.35,8.63,5.19c0.48,0.95,0.66,2.08-0.09,2.78
		c-2.67,2.48-4.78,5.39-6.61,8.49c-0.71,1.2-2.35,1.31-2.78,2.79c-0.29,3.77-0.29,3.77,2.54,5.06c1.62-0.32,1.43-2.64,2.87-2.8
		c1.67-0.34,2.41,0.49,3.05,1.57c-0.06,4.42-5.45,4.56-6.13,8.2c-1.75,0.09-3.06,0.15-4.61,0.23c-1.55-2.32-3.39-4.4-6.59-4.19
		c-0.28-1.34-0.5-2.39-0.89-4.25c-2.75,3.24-5.09,6-7.43,8.76c-2.05-0.21-3.76,0.17-4.97-0.5c-4.67-2.6-9.71-1.29-14.19-1.77
		c-3.45,0.59-5.21,3.44-8.05,4.46c-2.14-0.9-3.01-2.42-2.34-4.99c2.5-1.11,5.06-2.52,7.27-4.93c0.35-1.14,0.78-2.54,1.07-3.45
		c-0.55-4.35-5.54-1.5-6.46-4.82c0.37-3.39,3.51-2.83,5.34-3.56c0.83-1.22,0.68-2.13,0.08-3.14c-1.7-0.99-3.45-0.3-5.1,0.03
		c-1.09-0.4-1.83-0.99-2.06-2.08c1.65-3.85,6.19-0.01,8.14-3.15c0.35-5.01-0.97-6.39-8.18-8.44
		C270.52,244.37,270.9,244.03,275.5,244.04z M286.97,270.34c-0.6,1.36-1.19,2.72-0.28,4.36c1.72-0.06,3.2-0.47,4.21-2.4
		c0.04-6.76,0.88-13.8-1.19-20.73c-1.31,0.33-1.76,1.43-2.69,2.93c0,2.6,0.43,5.81-0.14,8.83
		C286.46,265.55,286.4,267.51,286.97,270.34z M319.13,263.69c0.36-0.51,0.86-0.97,0.6-1.72c-0.58-1-1.38-1.1-2.35-0.55
		c-0.41,3.15-0.41,3.15,0.44,3.19C318.1,264.46,318.37,264.32,319.13,263.69z"/>
	<path d="M253.91,327.84c-0.39,2.63-1.28,4.74-2.87,6.94c-1.14,0.62-2.59,1.4-4.1,2.21c-0.88,1.28-1.82,2.63-2.78,4.01
		c-4.46,2.28-4.46,2.28-14-2.51c-1.66-1.95-1.6-4.54-2.37-6.78c3.5-9.93,0.84-19.9,0.82-29.3c-0.61-1.76-2.18-1.67-2.73-2.76
		c-1.07-2.2-0.34-4.16,0.83-6.06c2.16-3.49,3.58-4.67,6.94-5.71c1.53,0.05,2.69,1.07,4.26,1.66c0.77,1.48,1.59,3.07,2.33,4.5
		c1.51,1.23,2.88,1.07,4.55,0.04c0.72-1.35,1.57-2.93,2.36-4.43c3.77-1.75,3.77-1.75,7.82-1.36c2.37,2.07,5.12,4.02,5.31,8.07
		c-1.22,2.77-2.24,5.91-5.3,8.08c-3.71,0.98-7.29,0.52-9.91-2.36c-1.8,0.22-2.48,1.15-3.14,2.08c-0.76,9.79-0.36,18.88,1.07,23.56
		c0.49,0.26,1.04,0.63,1.65,0.84c0.45,0.16,0.96,0.12,1.23,0.14c2.72-0.45,3.65-4.53,7.26-2.77
		C253.32,326.31,253.57,326.9,253.91,327.84z"/>
	<path d="M440.19,300.62c-1.26,1.27-2.44,2.16-3.18,2.71c-2.15,0.88-3.7-0.36-5.16-0.11c-1.47,0.67-2.38,1.56-2.41,3.07
		c-0.12,7.05-0.74,14.13,0.98,20.83c2.35,2.13,4.26-0.01,6.57,0.07c1.18,0.65,2.32,1.79,3.03,3.23c-1.1,4.74-2.37,6.92-6.29,10.87
		c-6.2,2.14-11.88,1.44-16.98-3.03c-1.61-4.13,0.84-8.04,0.71-12.14c-0.12-3.95-0.33-8.08,0.85-12.14
		c-1.64-3.33-0.46-7.85-3.95-10.31c-0.32-2.46-0.34-4.59,0.14-6.93c2.33-1.73,2.55-4.57,3.03-7.35c2.67-1.3,2.52-4,3.05-6.36
		c1.17-0.98,2.31-1.93,3.55-2.97c2.39,0.36,5.2-1.35,7.1,1.37c0.25,3.2-3.35,5.42-1.56,8.68c0.5,0.89,1.46,1.16,2.29,1.54
		c1.83-0.53,3.55-1.03,5.2-1.51c2.67,0.82,3.3,3.06,4.08,5.28C440.93,297.02,440.61,298.62,440.19,300.62z"/>
	<path d="M386.33,335.76c-1.29-1.3-2.66-1.24-3.97-1.29c-1.89-0.07-3.09-0.97-3.7-2.82c0.33-2.59,1.23-5.01,2.94-7.01
		c-0.33-4.77,0.47-9.4-0.5-14c-0.15-0.73,0.36-1.57,0.4-2.37c0.15-3.11,0.35-6.24-1.06-9.08c1.74-3.41,4.48-5.01,7.13-5.44
		c3.63-1.92,4.76-5.56,8.46-6.96c5.64,2.74,11.32,5.73,16.09,10.6c-2.41,5.07-7.39,7.45-9.67,12.12c-2.15,4.4-6.06,7.65-9.27,11.08
		c-1.18,2.55-0.49,4.69,0.67,6.78c1,1.23,2.51,1.5,3.39,2.02c1.9,0.22,2.97-0.69,4.2-1.21c1.36-1.21,1.21-3.44,3.15-4.57
		c3.39-0.39,4.15,2.1,4.88,4.89c-0.9,1.62-2.09,3.01-3.67,3.9c-4.51,2.55-6.63,8.39-12.61,9.08
		C390.11,340.83,388.41,338.34,386.33,335.76z M394.01,298.88c-0.4,0.24-1.12,0.44-1.17,0.74c-0.53,3.65-1.54,7.33,0.12,10.94
		c4.31-0.05,5.94-1.78,7.14-7.57C398.36,301.68,396.56,300.32,394.01,298.88z"/>
	<path d="M279.89,340.2c-1.35,0.72-2.3,1.45-3.6,1.25c-3.29-1.09-5.34-3.61-6.89-6.31c-2.3-1.09-4.98-0.04-6.92-2.47
		c-0.44-3.08,0.95-5.96,2.76-8.91c0-2.16-0.01-4.46,0-6.77c0.02-2.3,0.19-4.62-1-6.55c1.54-3.94,1.53-7.58-0.59-11.01
		c3.29-4.29,3.29-4.29,7.39-5.58c3.8-1.84,4.62-5.76,8.43-6.85c5.64,2.36,10.7,6.05,15.89,9.6c-0.59,2.38-1.54,3.82-3.11,5.27
		c-2.32,2.15-4.7,4.31-6.13,7.41c-1.64,3.53-4.66,6.21-7.26,9.09c-4.07,4.5-3.75,7.62,1.42,11.06c1.6,0.42,2.93-0.22,4.38-1.06
		c1.62-1.28,1.29-4.49,4.48-4.88c1.84,0.74,2.87,2.25,3.17,4.58c-0.65,1.89-1.49,3.55-3.67,4.72c-1.92,1.03-3.4,2.99-4.87,4.72
		C282.77,338.67,281.71,339.59,279.89,340.2z M283.03,306.14c0.29-0.89,1.23-1.77,0.43-2.72c-1.82-2.14-3.7-4.27-7.29-4.59
		c-1.02,4.38-1.21,8.41,0.39,12.43C279.77,311.1,281.01,308.63,283.03,306.14z"/>
	<path d="M246.32,141.06c-2.27,0.02-4.09,0.02-6.01,0.02c-1.4-1.98-2.79-3.95-4.18-5.94c-3.72,0.99-2.31,5.66-5.92,6.81
		c-2.3,0.09-3.33-2.33-4.93-3.59c-0.95-1.6-0.76-3.42-1.74-4.33c-0.32-2.03,1.25-3.1,1.12-4.91c-1.84-2.74-4.69-5.55-1.79-9.44
		c2.42-2.68,5.79,0.37,8.43-1.75c3.05,4.14,7.33,3.18,11.33,3.31c0.6-0.71,1.11-1.32,1.63-1.93c0.33-0.06,0.66-0.21,0.97-0.17
		c5.37,0.65,9.91-1.81,14.63-3.73c2.2-0.89,4.16-2.84,7.17-1.93c-2.42,4.31-8.2,3.61-10.55,8.21c0.95,1.65,3.71,2.56,4.02,5.09
		c6.32-0.31,12.18-2.38,18.89-1.44c-6.24,4.23-12.13,7.76-18.34,10.75c-3.09,1.49-6.09,3.22-9.74,3.18
		C249.68,139.26,248.56,141.1,246.32,141.06z M232.62,129.57c0.99,0.45,1.94,0.71,3.1-0.42c-1.69-1.44-3.12-0.9-5.38-0.83
		C231.45,128.92,231.73,129.07,232.62,129.57z"/>
	<path d="M409.19,263.44c2.32,0.91,4.7-0.18,7.24,2.24c1.75,1.82,1.18,4.96-0.23,7.48c-1.16,2.07-1.86,4.05-1.88,6.1
		c-0.97,0.85-1.73,1.45-3.15,1.1c-0.93-3.08-2.97-5.83-4.45-9.25c-6.34,0.23-12.74-0.33-19.13,0.66c-1.61,0.25-3.3,0.37-4.91-0.19
		c-1.62-0.56-3.34-0.61-4.9-0.2c-4.35,1.14-8.5-0.14-12.7-0.74c-1.3-0.19-2.58-0.51-3.9-0.51c-5.93,0.03-11.77-0.83-17.6-1.8
		c-2.1-0.35-4.28-0.21-6.42-0.27c-1.18-0.03-2.33-0.04-3.01-1.49c1.47-2.19,3.88-2.13,6.06-2.32c2.96-0.26,5.94-0.16,8.91-0.32
		c3.75-0.21,7.49-0.53,10.85-2.78c2.22,0,4.54-0.15,6.84,0.03c6.96,0.55,13.75-0.95,20.61-1.56c0.8-0.07,1.63-0.5,2.41-0.18
		c3.37,1.38,6.46,0.33,9.34-1.01C403.02,259.13,406.19,260.71,409.19,263.44z"/>
	<path d="M181.23,396.72c-1.22-1.96-2.2-3.67-3.22-5.46c0.05-2.18-0.31-4.37,0.71-6.68c0.83-1.88,0.26-4.23-0.29-6.29
		c-0.62-2.31-0.77-4.46,0.26-6.73c0.44-0.97,0.14-2.27,0.26-3.41c0.32-3.09-0.72-6.22,0.51-9.32c0.35-0.89-0.32-2.19-0.52-3.29
		c0.78-2.48,2.33-4.37,4.2-5.9c1.07-0.48,2.04-0.24,3.28,0.04c1.7,3.45,4.8,6.4,4.46,10.99c-0.27,3.61-0.57,7.32-0.07,10.88
		c0.98,7.07-0.45,14.1,0.17,21.13c0.18,2.06-0.99,3.8-1.36,5.77c-1.35,1.39-2.95,2.03-6.03,1.14
		C183.14,399.47,182.88,397.58,181.23,396.72z"/>
	<path d="M421.04,358.86c0.28,0.69,0.49,1.05,0.41,1.33c-1.37,4.99-0.85,10.14-1.41,15.19c-0.51,4.62-0.82,9.15,0.07,13.75
		c0.61,3.13-0.97,6.16-0.69,9.4c-2.5,2.35-4.36,5.31-7.17,7.17c-1.33-0.28-1.7-1.13-2.01-2.12c-0.65-2.09-0.72-4.22-0.67-6.37
		c0.31-12.01-0.31-24.02-0.21-36.03c0.02-3.02,1.22-5.81,1.02-8.71c0.91-1.36,1.87-2.45,3.63-3.04c1.7,0.88,3.54,1.84,5.3,2.75
		C419.86,354.41,420.35,356.45,421.04,358.86z"/>
	<path d="M318.71,396.36c-0.88-2.9-3.74-1.62-5.59-3.44c0.12-3.47,2.5-7.1,1.72-11.04c-0.77-3.85,0.87-7.82-0.92-11.64
		c2.97-3.23,7.49-4.23,9.47-7.85c4.71-0.59,6.94,3.42,10.26,4.32c1.56,1.52,1.69,3.08,1.13,4.79c-4.72,4.52-7.7,10.49-12.66,14.9
		c0.93,1.4,1.65,2.47,2.27,3.39c1.3,0.64,2.43,0.53,3.81,0.14c0.68-0.85,1.49-1.86,2.19-2.73c1.21-0.27,2.16-0.2,3.04,0.45
		c0.86,1.18,0.43,2.51,0.48,3.99c-2.97,1.99-5.51,4.53-7.88,6.99c-1.61,0.68-3.06,0.71-5.25,0.2
		C320.42,398.41,319.69,397.52,318.71,396.36z M322.17,376.4c0.2,0.63,0.42,1.23,1.34,1.64c1.67-0.89,3.63-1.63,4.37-4.61
		c-1.96-0.42-2.5-2.94-5.16-3.11C321.71,372.04,322.26,373.85,322.17,376.4z"/>
	<path d="M421.41,527.18c-0.95,1.36-1.74,2.41-2.75,3.76c-4.74-0.17-8.21,4.8-13.07,4.22c-1.72-0.67-2.54-1.64-2.96-2.82
		c-0.33-1.87,0.39-3.35,1.17-4.88c2.84-2.32,5.27-5.3,8.97-6.36c3.68-5.73,8.72-9.77,14.6-12.85c0.58-0.31,1.33-0.47,1.73-0.93
		c2.99-3.48,6.85-3.27,10.54-2.85c1.68,1.03,1.99,2.5,2.57,3.9c-1.34,3.05-4.2,4.49-6.63,6.33c-3.26,2.47-6.89,4.4-9.85,7.35
		C424.19,523.56,422.98,525.28,421.41,527.18z"/>
	<path d="M359.06,521.5c5.36-3.46,9.99-7.36,15.51-9.95c1.86-0.87,3.24-2.76,4.71-4.08c2.6-0.71,4.68,0.44,6.79,1.13
		c1.54,1.26,2.45,2.74,2.44,5.33c-4.25,3.17-7.98,7.61-13.69,9.43c-1.71,0.55-3.42,1.28-4.91,2.26c-1.95,1.29-4.34,1.78-6.13,2.92
		c-4.16,2.64-9.05,3.66-13.08,6.54c-1.57,0-3.25,0.48-4.7-0.67C347.1,530.46,352.8,524.76,359.06,521.5z"/>
	<path d="M182.9,532.05c-1.6-0.57-2.83-1-4.43-1.57c-3.94-7.28-10.74-12.06-17.52-16.55c1.29-4.9,5.48-7.09,9.96-5.1
		c4.33,1.93,8.21,4.66,11.1,8.55c0.78,1.05,1.49,2.16,2.43,3.54c2.64,1.3,5.53,2.73,7.83,5.21c2.88,3.1,3.2,4.67,0.9,8.79
		c-2.17,0.34-4.32,0.58-6.35-1.16C185.87,532.96,184.46,532.69,182.9,532.05z"/>
	<path d="M229.38,272.3c-1.08-0.19-1.72-0.51-1.74-1.26c-0.06-2.13-0.02-4.26-0.02-6.31c2.09-1.8,3.8,0.13,5.99,0.45
		c6.65-2.7,13.89-2.28,21.17-1.79c1.09,0.73,2.18,1.46,3.24,2.17c0.78,1.65,0.39,3.28,0.4,4.99c-1.11,1.03-2.18,2.04-3.22,3
		c-3.05,0.8-5.91,1.19-9.16,0.93c-3.16-0.25-6.02-0.25-8.43-2.46C234.93,272.69,232.38,273.8,229.38,272.3z"/>
	<path d="M448.09,625.54c-1.07-5.01-2.13-9.58-3.38-15.01c-0.66-1.01-2.1-2.63-2.66-5.1c0.39-1.78,1.01-3.77,2.17-5.46
		c2.42-1.04,3.85,0.59,5.39,1.47c1.52,2.87,1.43,5.85,1.48,8.79c3.94,5.26,2.5,12.2,5.95,17.74c-2.32,4.2,2.26,8.04,0.73,12.27
		c-3.22,1.53-3.22,1.53-6.53-2.81c0.09-2.7-0.17-5.45-2.17-7.72C448.14,628.66,448.21,627.28,448.09,625.54z"/>
	<path d="M149.98,599.61c3.47,2.78,4.29,6.38,1.77,9.4c-1.41,1.69-1.95,3.4-2.13,5.28c-0.45,4.73-2.59,9.04-3.22,13.72
		c-0.2,1.46-0.32,2.92-1.51,4.07c-0.87,0.85-0.98,2.06-0.95,3.23c0.06,1.89-0.98,3.41-1.27,4.8c-1.84,1.4-3.34,1.57-4.99,0.46
		c-1.79-3.09,0.26-5.59,1.48-8.26c-0.88-7.8,2.8-14.61,4.95-21.81c0-2.13,0-4.27,0-6.34C145.75,602.26,146.42,599.48,149.98,599.61z
		"/>
	<path d="M200.9,565.96c-3.09-1.79-1.66-4.55-2.25-6.91c3.37-5.61,5.78-11.74,9.65-17.07c6.61-0.35,11.69,1.72,15.44,7.27
		c-2.41,1.65-4.37,0.43-6.56-0.3c-2.54,2.54-4.54,5.47-6.5,8.42c-1.8,2.71-3.62,5.37-6.18,7.46
		C203.54,565.62,202.48,565.86,200.9,565.96z"/>
	<path d="M273.01,543.26c3.32,2.24,6.31,4.3,8.98,6.85c0.57,1.75,0.69,3.52,0.17,5.35c-1.25,1.47-2.97,1.98-4.76,2.42
		c-2-0.09-3.76-1.27-5.22-1.01c-7.27-4.86-12.63-10.7-16.94-18.05c3.59-1.53,6.32,0.64,9.23,0.94
		C267.59,540.1,269.9,542.1,273.01,543.26z"/>
	<path d="M382.83,542.02c2.31-0.34,3.96,0.26,5.3,1.26c2.99,5.42,6.14,10.56,8.36,16.06c-0.42,2.23-0.81,4.29-1.19,6.26
		c-1.73,0.64-3.07,0.36-4.26-0.75c-2.14-2.01-4.28-3.92-5.7-6.66c-1.55-3-3.66-5.75-5.93-7.84c-1.89-0.88-3.63,0.31-5.36-0.78
		C375.3,545.34,379.24,544.12,382.83,542.02z"/>
	<path d="M211.68,512.26c-2.19-1.74-4.06-3.3-5.87-4.8c-0.36-1.57-0.46-3.02,0.08-4.44c3.27-2.86,5.08,1.52,7.87,1.59
		c3.18,0.08,5.74,2.18,7.98,4.32c2.1,2.01,3.95,4.29,5.87,6.41c-0.05,0.99-0.09,1.79-0.13,2.57c-3.18,3.08-6.24,0.73-9.2,0.21
		C216.13,516.17,214.06,514.3,211.68,512.26z"/>
	<path d="M422.91,408.52c3.45-2.15,3.45-2.15,6.43,1.31c0,1.42,0,2.89,0,4.31c-2.44,4.5-7.01,6.38-10.77,9.15
		c-1.44,1.06-3.45,1.21-4.92-1.03c0.32-1.52,0.68-3.24,1-4.78c2.01-2.4,4.29-4.28,5.75-6.89
		C420.84,409.81,421.9,409.37,422.91,408.52z"/>
	<path d="M409.46,582.72c-5.72-0.32-9.14-2.89-11-8.58c-0.41-1.27-1.74-2.04-1.66-3.69c0.6-0.96,1.28-2.07,1.97-3.17
		c1.94-1.72,3.95-1.09,6.22-0.06c1.8,3.38,4.13,6.73,5.17,10.76c0.4,1.56,0.48,2.89-0.66,4.5
		C409.36,582.8,409.43,582.75,409.46,582.72z"/>
	<path d="M304.09,554.97c2.67-4.4,7.05-6.19,10.83-8.63c1.39-0.9,3.49-0.71,5.23-1.02c1.58,0.33,2.01,1.57,2.33,2.92
		c-0.1,3.02-2.41,4.54-4.49,6.05c-3.6,2.63-10.32,4.68-13.61,4.44C303.06,557.73,303.1,556.56,304.09,554.97z"/>
	<path d="M232.9,522.63c5.27,0.8,9.16,3.87,13.25,5.87c0.57,1.5,0.7,2.6-0.55,4.06c-6.05,1.78-10.89-1.66-15.72-4.85
		C228.9,524.92,230.18,523.53,232.9,522.63z"/>
	<path d="M291.44,562.66c-1.48-1.63-2.17-3.23-2.06-5.52c3.48-2.42,7.23,1.09,10.78-0.51c1.09,1.67,2.05,3.14,2.89,4.42
		c-0.12,2.33-1.86,3.29-2.59,4.64c-1.58,0.42-2.88,0.39-4.28,0.05C294.59,565.07,293.55,563.35,291.44,562.66z"/>
	<path d="M340.12,111.11c-1.71-0.32-2.99-0.6-4.27-0.88c-1.07-0.24-1.76-0.84-1.84-2.35c1.58-2.33,4.16-1.98,6.48-1.5
		c2.88,0.6,5.73,1.37,8.58,2.06c1.96,0.48,3.7,1.9,5.63,2.96c-0.49,0.66-0.76,1.03-1.15,1.56
		C349.24,112.36,344.9,111.76,340.12,111.11z"/>
	<path d="M336.01,538.21c0.79,0.13,1.22,0.31,1.84,0.56c-1.13,3.87-3.7,6-7.4,6.93c-0.64-0.31-1.07-0.77-1.31-1.48
		c0.19-1.5,1.63-2.34,2.24-3.88C332.72,539.68,334.18,538.97,336.01,538.21z"/>
	<path d="M313.44,215.22c0.39,0.71,0.51,1.15,0.66,1.71c-1.71,1.15-3.32,0.68-4.99,0.15c0.02-1.87,1.17-2.62,2.59-3.33
		C312.19,214.15,312.68,214.55,313.44,215.22z"/>
	<path d="M348.11,134.43c0.61-0.07,0.91,0.01,1.5,0.17c-0.39,1.75-1.23,2.99-3.06,3.61C344.92,136.13,346.37,135.36,348.11,134.43z"
		/>
</g>
</svg>
